<?xml version="1.0" encoding="UTF-8" standalone="no"?>
<!DOCTYPE svg PUBLIC "-//W3C//DTD SVG 1.1//EN" "http://www.w3.org/Graphics/SVG/1.1/DTD/svg11.dtd">
<svg version="1.1" xmlns="http://www.w3.org/2000/svg" xmlns:xlink="http://www.w3.org/1999/xlink" preserveAspectRatio="xMidYMid meet" viewBox="0 0 640 640" width="640" height="640"><defs><path d="M227.39 123.85C180.88 170.35 180.88 245.64 227.39 292.15C233.25 298.01 242.75 298.01 248.6 292.15C254.46 286.29 254.46 276.79 248.6 270.93C213.82 236.15 213.82 179.85 248.6 145.06C254.46 139.21 254.46 129.71 248.6 123.85C242.75 117.99 233.25 117.99 227.39 123.85Z" id="aYNjumMNE"></path><path d="M387.4 123.85C381.54 129.71 381.54 139.21 387.4 145.06C422.1 179.77 422.1 236.23 387.4 270.93C381.54 276.79 381.54 286.29 387.4 292.15C393.25 298.01 402.75 298.01 408.61 292.15C455.01 245.75 455.01 170.25 408.61 123.85C402.75 117.99 393.25 117.99 387.4 123.85Z" id="a17alviaof"></path><path d="M203.35 78.59C197.49 72.74 187.99 72.74 182.13 78.59C110.78 149.95 110.78 266.05 182.13 337.4C187.99 343.26 197.49 343.26 203.35 337.4C209.21 331.55 209.21 322.05 203.35 316.19C143.69 256.53 143.69 159.46 203.35 99.81C209.21 93.95 209.21 84.45 203.35 78.59Z" id="d8gF7PK2GP"></path><path d="M432.65 78.59C426.79 84.45 426.79 93.95 432.65 99.81C492.31 159.46 492.31 256.53 432.65 316.19C426.79 322.05 426.79 331.55 432.65 337.4C438.51 343.26 448.01 343.26 453.87 337.4C525.22 266.05 525.22 149.95 453.87 78.59C448.01 72.74 438.51 72.74 432.65 78.59Z" id="baetOa5oq"></path><path d="M158.09 33.34C152.23 27.48 142.73 27.48 136.88 33.34C36.93 133.28 37.15 282.93 136.88 382.66C142.73 388.52 152.23 388.52 158.09 382.66C163.95 376.8 163.95 367.3 158.09 361.45C70.61 273.97 70.61 142.03 158.09 54.55C163.95 48.69 163.95 39.2 158.09 33.34Z" id="a17TaYJpxG"></path><path d="M477.91 33.34C472.05 39.19 472.05 48.69 477.91 54.55C565.39 142.03 565.39 273.97 477.91 361.45C472.05 367.3 472.05 376.8 477.91 382.66C483.77 388.52 493.26 388.52 499.12 382.66C599.07 282.72 598.85 133.06 499.12 33.34C493.27 27.48 483.77 27.48 477.91 33.34Z" id="aYDE20hgV"></path><path d="M375 204.53C375 234.88 350.36 259.53 320 259.53C289.64 259.53 265 234.88 265 204.53C265 174.18 289.64 149.54 320 149.54C350.36 149.54 375 174.18 375 204.53Z" id="ak96tvrFi"></path><path d="M176.34 569.42C163.99 569.42 154 559.43 154 547.08C154 543.02 155.08 539.21 156.98 535.93C171.13 511.36 284.32 314.77 298.47 290.19C302.32 283.51 309.54 279 317.83 279C326.11 279 333.33 283.51 337.19 290.19C351.34 314.77 464.53 511.36 478.68 535.93C480.58 539.21 481.66 543.02 481.66 547.08C481.66 559.43 471.66 569.42 459.32 569.42C402.72 569.42 232.93 569.42 176.34 569.42Z" id="d1SU4ZZHC"></path><path d="M317.83 383.26L317.83 569.42L504 569.42L317.83 383.26Z" id="lGQ3ZAFoB"></path><linearGradient id="gradientaCCOElNFE" gradientUnits="userSpaceOnUse" x1="277.85" y1="453.64" x2="474.58" y2="565.36"><stop style="stop-color: #1a237e;stop-opacity: 0.2" offset="0%"></stop><stop style="stop-color: #1a237e;stop-opacity: 0.02" offset="100%"></stop></linearGradient><path d="M156.98 535.93C155.08 539.21 154 543.02 154 547.08C154 559.43 163.99 569.42 176.34 569.42C185.77 569.42 232.93 569.42 317.83 569.42C317.83 395.17 317.83 298.36 317.83 279C309.54 279 302.32 283.51 298.47 290.19C298.47 290.19 171.13 511.36 156.98 535.93Z" id="anBkPUpkx"></path><path d="M317.83 383.26L444.42 606.66L436.98 614.1L317.83 569.42L198.68 614.1L191.23 606.66L317.83 383.26Z" id="b11m7NJdY7"></path><path d="M317.83 383.26L444.42 606.66L436.98 614.1L317.83 569.42" id="bOJdce0kH"></path></defs><g><g><g><use xlink:href="#aYNjumMNE" opacity="1" fill="#039be5" fill-opacity="1"></use><g><use xlink:href="#aYNjumMNE" opacity="1" fill-opacity="0" stroke="#000000" stroke-width="1" stroke-opacity="0"></use></g></g><g><use xlink:href="#a17alviaof" opacity="1" fill="#039be5" fill-opacity="1"></use><g><use xlink:href="#a17alviaof" opacity="1" fill-opacity="0" stroke="#000000" stroke-width="1" stroke-opacity="0"></use></g></g><g><use xlink:href="#d8gF7PK2GP" opacity="1" fill="#039be5" fill-opacity="1"></use><g><use xlink:href="#d8gF7PK2GP" opacity="1" fill-opacity="0" stroke="#000000" stroke-width="1" stroke-opacity="0"></use></g></g><g><use xlink:href="#baetOa5oq" opacity="1" fill="#039be5" fill-opacity="1"></use><g><use xlink:href="#baetOa5oq" opacity="1" fill-opacity="0" stroke="#000000" stroke-width="1" stroke-opacity="0"></use></g></g><g><use xlink:href="#a17TaYJpxG" opacity="1" fill="#039be5" fill-opacity="1"></use><g><use xlink:href="#a17TaYJpxG" opacity="1" fill-opacity="0" stroke="#000000" stroke-width="1" stroke-opacity="0"></use></g></g><g><use xlink:href="#aYDE20hgV" opacity="1" fill="#039be5" fill-opacity="1"></use><g><use xlink:href="#aYDE20hgV" opacity="1" fill-opacity="0" stroke="#000000" stroke-width="1" stroke-opacity="0"></use></g></g><g><use xlink:href="#ak96tvrFi" opacity="1" fill="#039be5" fill-opacity="1"></use><g><use xlink:href="#ak96tvrFi" opacity="1" fill-opacity="0" stroke="#09cfb5" stroke-width="1" stroke-opacity="1"></use></g></g><g><g><use xlink:href="#d1SU4ZZHC" opacity="1" fill="#03a9f4" fill-opacity="1"></use><g><use xlink:href="#d1SU4ZZHC" opacity="1" fill-opacity="0" stroke="#000000" stroke-width="1" stroke-opacity="0"></use></g></g><g><use xlink:href="#lGQ3ZAFoB" opacity="1" fill="url(#gradientaCCOElNFE)"></use><g><use xlink:href="#lGQ3ZAFoB" opacity="1" fill-opacity="0" stroke="#000000" stroke-width="1" stroke-opacity="0"></use></g></g><g><use xlink:href="#anBkPUpkx" opacity="1" fill="#039be5" fill-opacity="1"></use><g><use xlink:href="#anBkPUpkx" opacity="1" fill-opacity="0" stroke="#000000" stroke-width="1" stroke-opacity="0"></use></g></g><g><use xlink:href="#b11m7NJdY7" opacity="1" fill="#f1f1f1" fill-opacity="1"></use><g><use xlink:href="#b11m7NJdY7" opacity="1" fill-opacity="0" stroke="#000000" stroke-width="1" stroke-opacity="0"></use></g></g><g><use xlink:href="#bOJdce0kH" opacity="1" fill="#e1e1e1" fill-opacity="1"></use><g><use xlink:href="#bOJdce0kH" opacity="1" fill-opacity="0" stroke="#000000" stroke-width="1" stroke-opacity="0"></use></g></g></g></g></g></svg>