<?xml version="1.0" encoding="UTF-8" standalone="no"?>
<!DOCTYPE svg PUBLIC "-//W3C//DTD SVG 1.1//EN" "http://www.w3.org/Graphics/SVG/1.1/DTD/svg11.dtd">
<svg version="1.1" xmlns="http://www.w3.org/2000/svg" xmlns:xlink="http://www.w3.org/1999/xlink" preserveAspectRatio="xMidYMid meet" viewBox="-1.000397123951572 -0.9960293135303786 515.9997938070519 586.1595508410595" width="512" height="585.16"><defs><path d="M165.39 94.91C118.88 141.41 118.88 216.7 165.39 263.21C171.25 269.07 180.75 269.07 186.6 263.21C192.46 257.35 192.46 247.85 186.6 241.99C151.82 207.21 151.82 150.91 186.6 116.12C192.46 110.27 192.46 100.77 186.6 94.91C180.75 89.05 171.25 89.05 165.39 94.91Z" id="a3YBMZXwkE"></path><path d="M325.4 94.91C319.54 100.77 319.54 110.27 325.4 116.12C360.1 150.83 360.1 207.29 325.4 241.99C319.54 247.85 319.54 257.35 325.4 263.21C331.25 269.07 340.75 269.07 346.61 263.21C393.01 216.81 393.01 141.31 346.61 94.91C340.75 89.05 331.25 89.05 325.4 94.91Z" id="cDriAhef4"></path><path d="M141.35 49.65C135.49 43.8 125.99 43.8 120.13 49.65C48.78 121.01 48.78 237.11 120.13 308.46C125.99 314.32 135.49 314.32 141.35 308.46C147.21 302.61 147.21 293.11 141.35 287.25C81.69 227.59 81.69 130.52 141.35 70.87C147.21 65.01 147.21 55.51 141.35 49.65Z" id="d8oUqkDU3"></path><path d="M370.65 49.65C364.79 55.51 364.79 65.01 370.65 70.87C430.31 130.52 430.31 227.59 370.65 287.25C364.79 293.11 364.79 302.61 370.65 308.46C376.51 314.32 386.01 314.32 391.87 308.46C463.22 237.11 463.22 121.01 391.87 49.65C386.01 43.8 376.51 43.8 370.65 49.65Z" id="blECQE3Ku"></path><path d="M96.09 4.4C90.23 -1.46 80.73 -1.46 74.88 4.4C-25.07 104.34 -24.85 253.99 74.88 353.72C80.73 359.58 90.23 359.58 96.09 353.72C101.95 347.86 101.95 338.36 96.09 332.51C8.61 245.03 8.61 113.09 96.09 25.61C101.95 19.75 101.95 10.26 96.09 4.4Z" id="aKuvbiihY"></path><path d="M415.91 4.4C410.05 10.25 410.05 19.75 415.91 25.61C503.39 113.09 503.39 245.03 415.91 332.51C410.05 338.36 410.05 347.86 415.91 353.72C421.77 359.58 431.26 359.58 437.12 353.72C537.07 253.78 536.85 104.12 437.12 4.4C431.27 -1.46 421.77 -1.46 415.91 4.4Z" id="ci9zruvb7"></path><path d="M313 175.59C313 205.94 288.36 230.59 258 230.59C227.64 230.59 203 205.94 203 175.59C203 145.24 227.64 120.6 258 120.6C288.36 120.6 313 145.24 313 175.59Z" id="b8MiZgo1T6"></path><path d="M114.34 540.48C101.99 540.48 92 530.49 92 518.14C92 514.08 93.08 510.27 94.98 506.99C109.13 482.42 222.32 285.83 236.47 261.25C240.32 254.57 247.54 250.06 255.83 250.06C264.11 250.06 271.33 254.57 275.19 261.25C289.34 285.83 402.53 482.42 416.68 506.99C418.58 510.27 419.66 514.08 419.66 518.14C419.66 530.49 409.66 540.48 397.32 540.48C340.72 540.48 170.93 540.48 114.34 540.48Z" id="d1ai5DeM9l"></path><path d="M255.83 354.32L255.83 540.48L442 540.48L255.83 354.32Z" id="cR917PYTJ"></path><linearGradient id="gradientcYrRMA9Zq" gradientUnits="userSpaceOnUse" x1="215.85" y1="424.7" x2="412.58" y2="536.42"><stop style="stop-color: #1a237e;stop-opacity: 0.2" offset="0%"></stop><stop style="stop-color: #1a237e;stop-opacity: 0.02" offset="100%"></stop></linearGradient><path d="M94.98 506.99C93.08 510.27 92 514.08 92 518.14C92 530.49 101.99 540.48 114.34 540.48C123.77 540.48 170.93 540.48 255.83 540.48C255.83 366.23 255.83 269.42 255.83 250.06C247.54 250.06 240.32 254.57 236.47 261.25C236.47 261.25 109.13 482.42 94.98 506.99Z" id="aKSAlTKx2"></path><path d="M255.83 354.32L382.42 577.72L374.98 585.16L255.83 540.48L136.68 585.16L129.23 577.72L255.83 354.32Z" id="a2j11uygyW"></path><path d="M255.83 354.32L382.42 577.72L374.98 585.16L255.83 540.48" id="cTjJcjR5R"></path></defs><g><g><use xlink:href="#a3YBMZXwkE" opacity="1" fill="#039be5" fill-opacity="1"></use><g><use xlink:href="#a3YBMZXwkE" opacity="1" fill-opacity="0" stroke="#000000" stroke-width="1" stroke-opacity="0"></use></g></g><g><use xlink:href="#cDriAhef4" opacity="1" fill="#039be5" fill-opacity="1"></use><g><use xlink:href="#cDriAhef4" opacity="1" fill-opacity="0" stroke="#000000" stroke-width="1" stroke-opacity="0"></use></g></g><g><use xlink:href="#d8oUqkDU3" opacity="1" fill="#039be5" fill-opacity="1"></use><g><use xlink:href="#d8oUqkDU3" opacity="1" fill-opacity="0" stroke="#000000" stroke-width="1" stroke-opacity="0"></use></g></g><g><use xlink:href="#blECQE3Ku" opacity="1" fill="#039be5" fill-opacity="1"></use><g><use xlink:href="#blECQE3Ku" opacity="1" fill-opacity="0" stroke="#000000" stroke-width="1" stroke-opacity="0"></use></g></g><g><use xlink:href="#aKuvbiihY" opacity="1" fill="#039be5" fill-opacity="1"></use><g><use xlink:href="#aKuvbiihY" opacity="1" fill-opacity="0" stroke="#000000" stroke-width="1" stroke-opacity="0"></use></g></g><g><use xlink:href="#ci9zruvb7" opacity="1" fill="#039be5" fill-opacity="1"></use><g><use xlink:href="#ci9zruvb7" opacity="1" fill-opacity="0" stroke="#000000" stroke-width="1" stroke-opacity="0"></use></g></g><g><use xlink:href="#b8MiZgo1T6" opacity="1" fill="#039be5" fill-opacity="1"></use><g><use xlink:href="#b8MiZgo1T6" opacity="1" fill-opacity="0" stroke="#09cfb5" stroke-width="1" stroke-opacity="1"></use></g></g><g><g><use xlink:href="#d1ai5DeM9l" opacity="1" fill="#03a9f4" fill-opacity="1"></use><g><use xlink:href="#d1ai5DeM9l" opacity="1" fill-opacity="0" stroke="#000000" stroke-width="1" stroke-opacity="0"></use></g></g><g><use xlink:href="#cR917PYTJ" opacity="1" fill="url(#gradientcYrRMA9Zq)"></use><g><use xlink:href="#cR917PYTJ" opacity="1" fill-opacity="0" stroke="#000000" stroke-width="1" stroke-opacity="0"></use></g></g><g><use xlink:href="#aKSAlTKx2" opacity="1" fill="#039be5" fill-opacity="1"></use><g><use xlink:href="#aKSAlTKx2" opacity="1" fill-opacity="0" stroke="#000000" stroke-width="1" stroke-opacity="0"></use></g></g><g><use xlink:href="#a2j11uygyW" opacity="1" fill="#f1f1f1" fill-opacity="1"></use><g><use xlink:href="#a2j11uygyW" opacity="1" fill-opacity="0" stroke="#000000" stroke-width="1" stroke-opacity="0"></use></g></g><g><use xlink:href="#cTjJcjR5R" opacity="1" fill="#e1e1e1" fill-opacity="1"></use><g><use xlink:href="#cTjJcjR5R" opacity="1" fill-opacity="0" stroke="#000000" stroke-width="1" stroke-opacity="0"></use></g></g></g></g></svg>